PathFileType	4	(X/Y/Z)	C:/Users/opensim2020/Desktop/walking_exp_matlab/subject03_walking14_straight_04.trc	
DataRate	CameraRate	NumFrames	NumMarkers	Units	OrigDataRate	OrigDataStartFrame	OrigNumFrames	
100.00	100.00	9	47	mm	100.00	2222	177	
Frame#	Time	LFHD			RFHD			LBHD			RBHD			C7			T10			CLAV			STRN			RBAK			LSHO			LUPA			LELB			LFRM			LWRA			LWRB			LFIN			RSHO			RUPA			RELB			RFRM			RWRA			RWRB			RFIN			LASI			RASI			LPSI			RPSI			LTHI			LKNE			LTIB			LANK			LHEE			LTOE			RTHI			RKNE			RTIB			RANK			RHEE			RTOE			*39			*40			*41			*42			*43			*44			*45			*46			
		X1	Y1	Z1	X2	Y2	Z2	X3	Y3	Z3	X4	Y4	Z4	X5	Y5	Z5	X6	Y6	Z6	X7	Y7	Z7	X8	Y8	Z8	X9	Y9	Z9	X10	Y10	Z10	X11	Y11	Z11	X12	Y12	Z12	X13	Y13	Z13	X14	Y14	Z14	X15	Y15	Z15	X16	Y16	Z16	X17	Y17	Z17	X18	Y18	Z18	X19	Y19	Z19	X20	Y20	Z20	X21	Y21	Z21	X22	Y22	Z22	X23	Y23	Z23	X24	Y24	Z24	X25	Y25	Z25	X26	Y26	Z26	X27	Y27	Z27	X28	Y28	Z28	X29	Y29	Z29	X30	Y30	Z30	X31	Y31	Z31	X32	Y32	Z32	X33	Y33	Z33	X34	Y34	Z34	X35	Y35	Z35	X36	Y36	Z36	X37	Y37	Z37	X38	Y38	Z38	X39	Y39	Z39	X40	Y40	Z40	X41	Y41	Z41	X42	Y42	Z42	X43	Y43	Z43	X44	Y44	Z44	X45	Y45	Z45	X46	Y46	Z46	X47	Y47	Z47	

45	0.440	-921.38434	461.86172	1599.59985	-1054.11865	467.72012	1601.85388	-920.04156	589.25299	1554.13257	-1050.98059	589.89789	1555.63647	-976.95068	620.87878	1394.38123	-976.02875	648.58838	1079.87390	-978.14661	500.52313	1316.92480	-977.62970	453.70395	1153.24963	-1077.40173	672.14838	1219.91016	-821.22400	549.16907	1352.94055	-748.91840	581.47455	1156.91870	-732.51929	592.17383	1035.19287	-721.36456	594.90314	905.21973	-740.68085	603.68774	783.12610	-691.72052	627.22217	798.77985	-692.82611	634.80139	714.10443	-1135.83972	543.85529	1344.26331	-1219.72876	489.52426	1137.79028	-1235.03979	434.88831	1040.70520	-1228.90222	353.42734	931.79456	-1185.13306	282.83783	867.63428	-1229.49976	303.04498	845.46582	-1215.84790	245.65628	801.19019	-873.17383	470.21942	918.46741	-1109.97131	492.92612	921.42957	-903.09070	636.70117	934.90350	-1052.13245	649.08197	949.73718	-813.44904	456.45511	621.11639	-858.97339	371.64755	469.25089	-850.46631	344.40521	279.45596	-880.58350	280.56418	76.77847	-919.35052	305.40674	28.77296	-898.72089	128.31882	88.17527	-1145.69324	600.35364	636.11090	-1110.62927	632.99103	458.26965	-1114.30151	735.74890	293.40533	-1067.42188	833.29047	97.74178	-1018.94305	886.25189	79.13744	-1047.60742	704.81903	31.11590				-969.30280	546.73871	1660.58569																		 
46	0.450	-920.71857	447.95679	1598.35449	-1053.39734	454.45422	1600.96326	-918.87146	575.27386	1552.57434	-1049.85620	576.54730	1554.52759	-975.88770	607.27478	1393.09424	-974.75208	634.44531	1078.56763	-977.65698	486.74741	1315.79651	-977.26154	439.77298	1152.14648	-1075.52124	659.00476	1218.36096	-820.48413	534.56445	1352.12122	-748.09760	568.27570	1156.31665	-732.03326	580.63531	1034.75391	-720.68671	585.95325	904.93207	-739.93146	597.60565	782.88519	-690.63086	620.26129	799.15619	-692.03406	631.26520	714.48792	-1135.21558	531.37183	1342.90466	-1219.16052	477.38135	1136.48950	-1234.37488	422.46698	1039.72937	-1227.53613	339.39203	932.07635	-1183.18188	267.63943	869.87390	-1227.07947	287.73776	846.89532	-1213.54224	228.95116	804.45703	-872.92554	455.50058	917.93896	-1110.06982	479.97101	920.05811	-902.24969	622.30988	934.10864	-1051.13379	635.24615	948.32196	-814.51782	438.96207	622.04675	-858.77393	355.93588	470.19693	-850.20172	330.66910	278.54068	-880.70648	269.25598	75.05246	-919.11169	295.00403	27.14093	-901.45325	117.46680	85.47639	-1145.54541	589.00708	635.30304	-1111.01660	622.47876	457.38672	-1114.84375	728.53564	294.39374	-1068.50623	830.85944	101.15878	-1020.16656	884.41406	83.95182	-1047.89807	704.43170	31.04090				-967.72229	532.85773	1659.08411																		 
47	0.460	-919.95239	434.09952	1597.20703	-1052.61536	441.09415	1600.16565	-917.68732	561.25403	1551.34497	-1048.52893	563.04114	1553.56921	-974.71960	593.55219	1391.91187	-973.71216	620.03174	1077.40015	-977.06732	472.86887	1314.89404	-976.73474	425.57242	1151.41724	-1073.47559	645.62195	1216.76904	-819.64484	519.88324	1351.39624	-747.25079	554.97949	1155.83606	-731.44257	568.77283	1034.41370	-720.68347	576.40424	904.48596	-739.60486	590.74005	782.78973	-689.80670	612.33496	799.53436	-691.70258	626.76770	715.00458	-1134.58325	519.05182	1341.94763	-1218.51404	465.50653	1135.29358	-1233.65430	410.45538	1038.75940	-1225.94348	325.90186	932.49231	-1181.20789	253.07478	872.03979	-1224.67578	272.98383	848.09509	-1211.35718	213.12943	807.50592	-872.53510	440.55063	917.83545	-1109.63501	466.07047	918.66364	-901.67926	607.67255	933.62408	-1050.45691	620.99683	947.08429	-814.99188	420.59375	623.51837	-858.83191	340.18469	471.04883	-849.99786	318.46063	277.10812	-881.04211	261.05539	72.62691	-918.55664	288.62000	25.12131	-905.23798	109.73210	80.65315	-1145.18518	577.02045	634.42126	-1111.36816	611.22900	456.49908	-1115.39197	720.87195	295.52820	-1069.62195	828.07080	104.94271	-1021.40912	882.14124	89.29219	-1048.16357	704.06445	30.80568				-966.56506	519.22882	1658.14990																		 
48	0.470	-919.11658	420.01788	1596.17200	-1051.73633	427.66492	1599.53345	-916.43085	547.20496	1550.33423	-1047.31982	549.69244	1552.97302	-973.47290	579.74603	1390.86523	-972.94757	605.39001	1076.26733	-976.41718	458.85492	1314.12012	-976.06732	411.06680	1150.83337	-1071.41589	632.02283	1215.25269	-818.68768	505.12643	1350.78369	-746.29327	541.46057	1155.43909	-730.71606	556.61444	1034.11707	-720.35925	566.23199	904.20874	-739.54065	583.01019	782.69806	-689.24982	603.32294	799.80078	-691.78516	621.24060	715.52625	-1133.85071	506.60391	1341.06360	-1217.86243	453.85956	1134.23328	-1232.78345	398.78580	1037.83289	-1224.32874	313.18417	932.86053	-1179.30737	239.41074	873.91614	-1222.31995	258.98944	849.19470	-1209.14331	198.16644	810.32068	-871.93542	425.33002	918.02924	-1108.97046	451.68088	917.25610	-901.29193	592.90161	933.27399	-1049.86804	606.30548	946.01093	-815.09698	401.59842	625.23584	-858.96899	324.14288	471.29929	-849.98828	307.64252	275.30911	-882.06219	255.65945	69.51241	-918.64850	285.47354	23.67108	-909.50836	105.01038	74.01141	-1144.77832	564.40112	633.43811	-1111.61694	599.38318	455.56555	-1115.95117	712.62665	296.76245	-1070.61316	824.86279	109.09939	-1022.48187	879.38318	95.22610	-1048.46680	703.56152	30.77055				-965.26691	505.59378	1657.53333																		 
49	0.480	-918.24506	405.90994	1595.25671	-1050.84827	414.16809	1598.92871	-915.15399	533.15076	1549.47815	-1045.97742	536.20953	1552.48645	-972.11157	565.83588	1389.80908	-972.31329	590.51819	1075.11951	-975.62054	444.69254	1313.51172	-975.41040	396.25089	1150.48132	-1069.37891	618.18774	1213.78003	-817.69196	490.40991	1350.24756	-745.23010	527.79895	1155.13196	-729.86835	544.32666	1033.94031	-720.00232	555.33942	904.02179	-739.73706	574.12665	782.85724	-688.81873	593.48212	799.94202	-692.19916	614.66425	715.98102	-1132.99365	494.01282	1340.14063	-1217.10168	442.38586	1133.23535	-1231.82971	387.49805	1036.89551	-1222.72974	300.68933	932.90570	-1177.29712	226.28261	875.58630	-1219.88220	245.69667	849.96063	-1206.94617	184.01184	812.69458	-871.11182	409.97070	918.40582	-1108.14319	436.77179	915.84375	-900.90826	577.88177	933.07867	-1049.34680	591.27765	945.07098	-815.22699	382.25272	626.91443	-858.91107	308.43381	471.53806	-850.37421	297.80521	273.23257	-883.45721	252.55255	66.38415	-919.35754	284.35071	22.17492	-913.86255	102.40940	65.49711	-1144.30090	551.07709	632.36755	-1111.98828	586.54504	454.43738	-1116.42957	703.81525	298.13760	-1071.64771	821.14331	113.72727	-1023.27826	875.89221	101.66807	-1048.67615	702.90448	30.60822				-963.55194	491.62024	1656.47754																		 
50	0.490	-917.34167	391.77338	1594.41980	-1049.93640	400.59085	1598.51160	-913.82477	519.05389	1548.84058	-1044.65784	522.69287	1552.18835	-970.64868	551.99048	1388.91553	-971.68616	575.37061	1074.07031	-974.77582	430.31924	1313.03906	-974.69971	381.19662	1150.29089	-1067.30664	604.22876	1212.48096	-816.56256	475.54910	1349.74036	-744.00684	514.07501	1154.85071	-728.96191	531.78357	1033.65247	-719.56281	543.93988	903.76532	-740.00708	564.57373	783.04907	-688.48853	582.76294	799.99847	-692.97375	607.11859	716.41321	-1132.00635	481.48688	1339.80383	-1216.27588	431.06998	1132.33337	-1230.78760	376.51556	1035.97461	-1221.18726	288.90216	932.91608	-1175.40527	213.84846	876.78204	-1217.63965	233.05670	850.52612	-1204.75122	170.67534	814.66522	-870.29199	394.44147	918.78979	-1107.30688	421.55283	914.50836	-900.07953	562.65186	933.20190	-1048.70752	576.13354	944.45154	-815.86389	363.01642	628.31897	-858.77399	293.16971	471.33258	-851.92297	288.72232	271.47659	-884.66461	248.29613	65.29961	-920.22876	282.56467	24.20050	-917.64429	98.21172	53.18669	-1143.84668	536.94458	631.13654	-1112.41040	572.72748	453.20679	-1116.78064	694.28552	299.66199	-1072.27014	816.87994	118.85490	-1023.89374	871.68311	108.88119	-1048.86816	702.17255	30.50940				-961.89563	477.43866	1656.01892																		 
51	0.500	-916.42596	377.58707	1594.15039	-1048.99426	386.89764	1598.64319	-912.52319	504.88824	1548.58044	-1043.37659	509.04315	1552.27759	-968.97064	538.29926	1388.46350	-970.86639	560.06140	1073.22522	-973.88885	416.02853	1312.94934	-973.97943	366.27890	1150.77380	-1064.90173	590.31006	1211.68799	-815.34192	460.72852	1349.44397	-742.80969	500.16299	1154.56116	-727.79608	518.90540	1033.63513	-719.10211	531.95447	903.49988	-740.20764	554.13062	783.02997	-688.29694	571.35748	799.86603	-693.77826	598.52094	716.76837	-1131.00317	468.86700	1339.37134	-1215.34180	419.83896	1131.54895	-1229.74536	365.82599	1035.03577	-1219.61475	277.57370	932.69342	-1173.62085	202.06827	877.64606	-1215.50208	221.14212	850.81335	-1202.80237	158.15248	816.10419	-869.20367	378.93240	919.18036	-1106.32300	406.13956	913.41583	-899.03125	547.02728	933.77502	-1047.92676	560.89868	944.01227	-816.96332	344.55121	629.48541	-858.77325	278.79221	471.08722	-853.51270	277.99411	271.41898	-884.10461	241.79776	64.98630	-918.90228	279.37308	26.73416	-920.88110	93.88190	43.61538	-1143.43066	521.92969	629.76318	-1112.69580	557.74988	451.80463	-1116.95044	683.99158	301.54828	-1073.05737	811.43427	124.56731	-1024.20776	866.18146	117.10390	-1049.03601	701.30524	30.48437				-961.04449	463.35873	1655.44763																		 
52	0.510	-915.49768	363.30856	1594.37866	-1048.00684	373.17276	1599.19788	-911.21887	490.66949	1549.00500	-1042.04785	495.32526	1553.00220	-967.15509	524.35797	1388.44763	-970.22211	545.08057	1073.07007	-973.01624	401.89014	1313.51917	-973.29053	351.42151	1151.57544	-1062.58350	576.45624	1211.07056	-814.04987	445.93292	1349.30420	-741.62659	486.00040	1154.42236	-726.95294	505.52835	1033.32373	-718.65912	519.40118	903.30914	-740.33820	542.71210	783.22809	-688.02991	559.20972	799.82629	-694.65363	588.95142	717.18628	-1129.97424	456.11182	1339.52722	-1214.28772	408.69812	1130.96204	-1228.70459	355.33188	1034.19653	-1218.10059	266.78494	932.36346	-1171.89673	191.01848	877.86011	-1213.49780	210.00578	850.71954	-1200.98657	146.56757	817.02484	-868.34875	363.40161	919.61206	-1104.97034	390.42276	912.72449	-897.86713	531.15314	934.79346	-1047.21350	545.39734	943.93488	-816.82361	328.56592	631.39368	-858.19476	263.93222	472.28525	-851.47406	265.75061	272.77536	-883.22766	235.51492	64.52638	-916.78571	275.80600	28.89669	-923.14996	89.09457	37.32813	-1142.93250	505.84271	628.45135	-1113.26221	541.38898	450.56512	-1116.98962	672.39264	303.83365	-1073.36560	804.92896	131.10759	-1023.81165	859.13379	126.21827	-1049.12891	700.48077	30.30494				-959.80902	449.26981	1656.22461																		 
53	0.520	-914.65436	348.99948	1594.88513	-1047.10059	359.36169	1599.85339	-909.90015	476.46490	1549.89722	-1040.66760	481.58908	1554.06775	-965.40747	510.13382	1388.85669	-969.53552	530.46442	1073.32471	-972.16058	387.75082	1314.31897	-972.52570	336.35794	1152.50330	-1060.56970	562.49658	1210.76245	-812.83838	431.24338	1349.53943	-740.59265	471.36795	1154.49182	-726.07135	491.82590	1033.39917	-718.15613	506.12711	903.43365	-740.43152	530.27191	783.60522	-687.73383	546.39203	800.05072	-695.63910	578.14838	717.78076	-1129.14453	443.34720	1340.11011	-1213.18958	397.66522	1130.72095	-1227.55701	344.95621	1033.54504	-1216.60217	256.60916	931.91010	-1170.47876	180.49150	877.96735	-1211.72388	199.69080	850.23193	-1199.26489	135.84601	817.16199	-867.57788	347.44885	920.81903	-1103.56042	374.82455	912.34143	-896.77753	515.47852	936.13629	-1046.52002	529.90155	944.07263	-815.41101	314.74130	632.72479	-857.55151	249.53357	473.64584	-849.92633	253.55054	273.86981	-883.30994	231.28299	64.55481	-915.83856	273.91562	30.14882	-921.33246	84.32291	34.97216	-1142.43237	489.11703	627.22168	-1114.27246	523.24573	449.09515	-1117.17041	659.27942	306.51349	-1073.01672	797.10864	138.38741	-1022.53827	850.07123	136.19786	-1049.04785	699.38086	30.29018				-958.50836	435.08020	1657.56885																		 
